<?xml version="1.0" encoding="UTF-8" standalone="no"?>
<svg
   xmlns:dc="http://purl.org/dc/elements/1.1/"
   xmlns:cc="http://creativecommons.org/ns#"
   xmlns:rdf="http://www.w3.org/1999/02/22-rdf-syntax-ns#"
   xmlns:svg="http://www.w3.org/2000/svg"
   xmlns="http://www.w3.org/2000/svg"
   xmlns:sodipodi="http://sodipodi.sourceforge.net/DTD/sodipodi-0.dtd"
   xmlns:inkscape="http://www.inkscape.org/namespaces/inkscape"
   width="12.5in"
   height="12in"
   viewBox="0 0 317.5 304.8"
   version="1.1"
   id="svg8"
   inkscape:version="1.0.2 (e86c870879, 2021-01-15)"
   sodipodi:docname="exercism.svg">
  <defs
     id="defs2" />
  <sodipodi:namedview
     id="base"
     pagecolor="#ffffff"
     bordercolor="#666666"
     borderopacity="1.0"
     inkscape:pageopacity="0.0"
     inkscape:pageshadow="2"
     inkscape:zoom="0.34131454"
     inkscape:cx="167.66461"
     inkscape:cy="664.80165"
     inkscape:document-units="mm"
     inkscape:current-layer="layer1"
     inkscape:document-rotation="0"
     showgrid="false"
     inkscape:window-width="1598"
     inkscape:window-height="858"
     inkscape:window-x="0"
     inkscape:window-y="20"
     inkscape:window-maximized="1"
     units="in"
     scale-x="1" />
  <metadata
     id="metadata5">
    <rdf:RDF>
      <cc:Work
         rdf:about="">
        <dc:format>image/svg+xml</dc:format>
        <dc:type
           rdf:resource="http://purl.org/dc/dcmitype/StillImage" />
        <dc:title></dc:title>
      </cc:Work>
    </rdf:RDF>
  </metadata>
  <g
     inkscape:label="Capa 1"
     inkscape:groupmode="layer"
     id="layer1">
    <path
       style="fill:#ffffff;fill-opacity:1;stroke:#ffffff;stroke-width:1.88771;stroke-opacity:1"
       d="m 233.25866,289.19124 c -7.00678,-3.37298 -3.7981,-8.99306 6.43857,-11.27738 7.91543,-1.76634 15.58349,-12.28249 17.95592,-24.62512 1.08097,-5.62382 1.96541,-25.01502 1.96541,-43.09137 0,-35.74739 1.36342,-42.81502 10.25828,-53.17631 l 4.70732,-5.48342 -4.58376,-5.48337 c -8.98719,-10.75105 -9.42177,-13.13001 -10.47224,-57.326426 -1.2362,-52.010671 -1.76619,-53.806325 -18.51271,-62.723811 -6.47779,-3.449428 -11.77779,-7.145325 -11.77779,-8.213121 0,-3.842675 9.97594,-6.212005 21.73342,-5.161772 16.51697,1.475354 25.07477,6.749553 30.35124,18.705572 3.89156,8.817925 4.28461,12.699166 5.20619,51.411246 0.58198,24.445132 1.85043,44.112072 3.04771,47.252362 1.12797,2.95849 5.02847,9.05651 8.66782,13.55105 l 6.61694,8.17192 -6.62844,7.57385 c -10.01431,11.44264 -11.80731,20.86535 -11.80731,62.05059 0,21.07199 -0.81901,38.006 -2.0339,42.05469 -2.80635,9.35202 -9.6502,19.15992 -15.87619,22.75214 -6.3805,3.68136 -29.73915,5.6946 -35.25648,3.03868 z M 49.433815,285.32296 c -6.473993,-4.40463 -11.807756,-12.34933 -14.717954,-21.92254 -1.233068,-4.05614 -2.060452,-20.23066 -2.060452,-40.27961 0,-41.92131 -1.68284,-51.43716 -11.115691,-62.85508 l -7.133163,-8.63428 7.212868,-9.14273 c 9.540552,-12.09317 11.0319,-20.77228 11.053447,-64.327355 0.01623,-32.936837 0.300772,-35.973493 4.257949,-45.455658 6.041524,-14.476623 13.663137,-19.276642 32.222344,-20.293353 10.989543,-0.602066 15.288024,-0.06857 18.009147,2.235269 4.1609,3.522724 2.87145,5.434872 -6.254893,9.275505 -19.115024,8.044097 -21.445338,15.177751 -21.445338,65.649151 0,36.890421 -1.757025,46.582841 -10.234127,56.455161 l -4.733948,5.51305 4.113189,4.27562 c 9.158143,9.51961 10.773237,17.83391 10.815636,55.67704 0.04524,40.52734 2.172598,52.30918 10.928443,60.52955 3.007972,2.82397 6.926648,5.13452 8.708163,5.13452 4.517686,0 11.635175,6.81925 10.068859,9.6469 -0.824737,1.48887 -7.153293,2.31423 -17.708681,2.3094 -12.975406,-0.006 -17.593213,-0.80199 -21.985798,-3.79056 z m 98.490275,-65.80358 c -9.31807,-4.60561 -16.97755,-18.69204 -16.97755,-31.22324 0,-6.49818 0.32043,-6.84907 6.25489,-6.84907 6.09122,0 6.2549,0.20573 6.2549,7.86466 0,11.4499 6.25748,18.96322 15.79357,18.96322 9.83851,0 16.00109,-6.48622 16.72946,-17.60796 0.4849,-7.40458 1.04926,-8.28806 5.67078,-8.87733 7.29802,-0.9305 8.92017,1.83546 7.45774,12.71635 -0.93515,6.95775 -3.00671,11.46073 -8.04472,17.48695 -6.39798,7.65289 -7.43536,8.14968 -18.17505,8.70456 -6.26438,0.32405 -12.99818,-0.20649 -14.96402,-1.17814 z M 76.120411,148.36134 c 2.183965,-15.01596 17.212792,-28.63952 31.593679,-28.63952 15.9855,0 32.168,16.13116 32.168,32.06602 0,3.37804 -1.01137,3.88508 -6.70166,3.35958 -5.30561,-0.48985 -6.81688,-1.52149 -7.25475,-4.95191 -0.30416,-2.38327 -2.62539,-6.6453 -5.15823,-9.47132 -3.66286,-4.08682 -6.35125,-5.13821 -13.1382,-5.13821 -7.28377,0 -9.192246,0.87414 -13.036143,5.9711 -2.476739,3.28417 -5.01502,7.77055 -5.64063,9.96979 -0.858151,3.01675 -2.70131,3.99871 -7.505767,3.99871 -6.311359,0 -6.358972,-0.0679 -5.326299,-7.16424 z m 100.200149,4.31855 c -1.57572,-4.58149 5.54033,-20.08588 11.32999,-24.68561 14.15802,-11.24829 32.35076,-10.02501 43.98667,2.95774 5.64061,6.29352 11.04608,20.87078 8.70697,23.48057 -0.53873,0.60141 -3.57304,1.09299 -6.74287,1.09299 -4.70826,0 -5.97564,-0.94399 -6.92327,-5.15666 -2.03245,-9.03528 -8.84173,-14.78294 -17.51329,-14.78294 -9.30045,0 -15.17976,4.18751 -18.56275,13.22135 -2.06873,5.52421 -3.47443,6.71825 -7.90932,6.71825 -3.02319,0 -5.82353,-1.25055 -6.37213,-2.84569 z"
       id="path849" />
  </g>
</svg>
