<?xml version="1.0" encoding="UTF-8"?>
<svg width="300px" height="300px" viewBox="0 0 300 300" version="1.1" xmlns="http://www.w3.org/2000/svg" xmlns:xlink="http://www.w3.org/1999/xlink">
    <!-- Generator: Sketch 61 (89581) - https://sketch.com -->
    <title>Add Links</title>
    <desc>Created with Sketch.</desc>
    <g id="Add-Links" stroke="none" stroke-width="1" fill="none" fill-rule="evenodd">
        <g id="link" fill-rule="nonzero">
            <circle id="Oval" fill="#25B7D3" cx="150" cy="150" r="150"></circle>
            <path d="M226.767188,77.0888672 L222.910547,73.2322266 C209.050781,59.3748047 186.629883,59.3777344 172.769531,73.2322266 L138.605273,107.396484 C137.072461,108.929297 136.208203,111.009961 136.208203,113.180859 C136.208203,115.351758 137.070117,117.432422 138.605273,118.965234 L151.437305,131.799609 L131.645508,151.591406 L118.811133,138.759375 C115.743164,135.691406 110.307422,135.691406 107.239453,138.759375 L73.1730469,172.828711 C59.3185547,186.686133 59.315625,209.112305 73.1730469,222.969727 L77.0320313,226.828711 C90.8835938,240.683203 113.312695,240.686133 127.173047,226.828711 L161.242383,192.757031 C164.438672,189.560742 164.438672,184.381641 161.242383,181.185352 L147.076758,167.019727 L166.868555,147.22793 L181.03418,161.393555 C182.566992,162.926367 184.647656,163.790625 186.818555,163.790625 C188.989453,163.790625 191.070117,162.928711 192.60293,161.393555 L226.767188,127.228711 C240.591797,113.405273 240.591797,90.9134766 226.767188,77.0888672 Z M143.882812,186.973828 L115.598438,215.258203 C111.993164,218.863477 107.198438,220.849219 102.101367,220.849219 C97.0013672,220.849219 92.2066406,218.863477 88.6013672,215.258203 L84.7423828,211.401562 C81.1371094,207.796289 79.1513672,203.001562 79.1513672,197.901562 C79.1513672,192.804492 81.1371094,188.009766 84.7423828,184.404492 L113.026758,156.117187 L120.073828,163.164258 L110.058984,173.178516 C105.799219,177.438281 105.799219,184.346484 110.058984,188.606836 C114.31875,192.867187 121.226953,192.866602 125.487305,188.606836 L135.501563,178.592578 L143.882812,186.973828 Z M215.195508,115.658203 L186.817969,144.035742 L178.437305,135.655078 L187.156641,126.935742 C191.416406,122.675977 191.416406,115.767773 187.156641,111.507422 C182.896875,107.24707 175.988672,107.247656 171.72832,111.507422 L163.008984,120.229102 L155.964258,113.182031 L184.341797,84.8044922 C187.94707,81.1992188 192.741797,79.2111328 197.841797,79.2111328 C202.941797,79.2111328 207.733594,81.1992188 211.341797,84.8044922 L215.198438,88.6611328 C222.641016,96.1037109 222.641016,108.215625 215.195508,115.658203 Z" id="Shape" fill="#E2E4E5"></path>
            <path d="M222.850781,73.1126953 C208.991016,59.2552734 186.570117,59.2582031 172.709766,73.1126953 L138.545508,107.276953 C137.012695,108.809766 136.148437,110.89043 136.148437,113.061328 C136.148437,115.232227 137.010352,117.312891 138.545508,118.845703 L151.442578,131.742773 L131.650781,151.53457 L118.753711,138.6375 C115.685742,135.569531 110.25,135.569531 107.182031,138.6375 L73.1126953,172.70918 C59.2582031,186.566602 59.2552734,208.992773 73.1126953,222.850195 L75.5179687,225.255469 L87.0896484,213.683789 L84.6814453,211.280859 C81.0761719,207.672656 79.0904297,202.880859 79.0904297,197.780859 C79.0904297,192.683789 81.0761719,187.889063 84.6814453,184.283789 L112.96582,155.996484 L120.075586,163.10625 L109.995703,173.186133 C105.735937,177.445898 105.735937,184.354102 109.995703,188.614453 C110.358398,188.977148 110.765039,189.266016 111.162891,189.566016 L188.047266,112.681641 C187.747266,112.283203 187.458398,111.880078 187.095703,111.514453 C182.835937,107.254688 175.927734,107.254688 171.667383,111.514453 L163.010742,120.171094 L155.900977,113.061328 L184.280859,84.6837891 C187.886133,81.0785156 192.680859,79.0904297 197.780859,79.0904297 C202.880859,79.0904297 207.672656,81.0785156 211.280859,84.6837891 L213.686133,87.0890625 L225.257812,75.5173828 L222.850781,73.1126953 Z" id="Path" fill="#FFFFFF"></path>
        </g>
    </g>
</svg>