<?xml version="1.0" encoding="UTF-8" standalone="no"?>
<svg
   xmlns:dc="http://purl.org/dc/elements/1.1/"
   xmlns:cc="http://creativecommons.org/ns#"
   xmlns:rdf="http://www.w3.org/1999/02/22-rdf-syntax-ns#"
   xmlns:svg="http://www.w3.org/2000/svg"
   xmlns="http://www.w3.org/2000/svg"
   xmlns:sodipodi="http://sodipodi.sourceforge.net/DTD/sodipodi-0.dtd"
   xmlns:inkscape="http://www.inkscape.org/namespaces/inkscape"
   height="2500"
   viewBox="136.85 110.11 225.33 222.9"
   width="1961"
   version="1.1"
   id="svg8"
   sodipodi:docname="frontend-mentor.svg"
   inkscape:version="1.0.2 (e86c870879, 2021-01-15)">
  <metadata
     id="metadata14">
    <rdf:RDF>
      <cc:Work
         rdf:about="">
        <dc:format>image/svg+xml</dc:format>
        <dc:type
           rdf:resource="http://purl.org/dc/dcmitype/StillImage" />
        <dc:title></dc:title>
      </cc:Work>
    </rdf:RDF>
  </metadata>
  <defs
     id="defs12" />
  <sodipodi:namedview
     pagecolor="#ffffff"
     bordercolor="#666666"
     borderopacity="1"
     objecttolerance="10"
     gridtolerance="10"
     guidetolerance="10"
     inkscape:pageopacity="0"
     inkscape:pageshadow="2"
     inkscape:window-width="1598"
     inkscape:window-height="858"
     id="namedview10"
     showgrid="false"
     inkscape:zoom="0.2836"
     inkscape:cx="980.5"
     inkscape:cy="1250"
     inkscape:window-x="0"
     inkscape:window-y="20"
     inkscape:window-maximized="1"
     inkscape:current-layer="svg8" />
  <path
     d="m254.2 123v155.67"
     fill="#fff"
     id="path2" />
  <path
     d="m244.2 123v155.67c0 12.87 20 12.89 20 0v-155.67c0-12.87-20-12.89-20 0zm112.54 44.79c-20 9.33-40 18.67-60 28-1.67.78-1.6 3.52 0 4.32 19.33 9.67 38.67 19.33 58 29 2.87 1.43 5.41-2.88 2.52-4.32-19.33-9.67-38.67-19.33-58-29v4.32c20-9.33 40-18.67 60-28 2.92-1.36.38-5.67-2.52-4.32z"
     fill="#67bece"
     id="path4"
     style="fill:#ffffff;fill-opacity:1" />
  <path
     d="m138.18 223.14c11.34 53.74 54.41 96.35 108.32 107.04 9.04 1.79 18.28 2.8 27.5 2.82 6.43.01 6.44-9.99 0-10-50.08-.06-96.35-29.49-117.24-75.11-4.01-8.75-6.96-18-8.94-27.41-1.33-6.29-10.97-3.63-9.64 2.66z"
     fill="#3f54a3"
     id="path6"
     style="fill:#ffffff;fill-opacity:1" />
</svg>
